<svg xmlns="http://www.w3.org/2000/svg" viewBox="0 0 180.01 39.23"><defs><style>.cls-1,.cls-3{fill:#ed7070;}.cls-1{fill-rule:evenodd;}.cls-2{fill:#fff0f0;}</style></defs><g id="Layer_2" data-name="Layer 2"><g id="Layer_1-2" data-name="Layer 1"><path class="cls-1" d="M0,5.89v.28a.38.38,0,0,0,0,.18c0,.07,0,.15,0,.23s0,.12,0,.18A.68.68,0,0,0,.13,7a.45.45,0,0,0,0,.18c0,.07,0,.15.05.23a.69.69,0,0,1,.05.17l.08.23A.75.75,0,0,0,.41,8a1.15,1.15,0,0,0,.1.23.3.3,0,0,1,.05.15,1,1,0,0,0,.13.23.24.24,0,0,1,.05.13A2,2,0,0,0,1,9l.18.26s.05.05.05.08a1.72,1.72,0,0,1,.13.18.19.19,0,0,0,.1.1s.07.07.1.13l.1.1.13.13a.24.24,0,0,1,.1.1l.13.13a.24.24,0,0,1,.1.1c.05,0,.08.08.13.1a.57.57,0,0,1,.13.1s.08.08.13.11l.12.07.13.08h0a6.08,6.08,0,0,0,3.18.89A5.84,5.84,0,0,0,11.62,6,5.58,5.58,0,0,0,11,3.2a.67.67,0,0,1,.1-.74L12.59.92s.05-.08.08-.1h0a.45.45,0,0,0-.31-.77H.72A.73.73,0,0,0,0,.77V5.89Z"/><path class="cls-1" d="M38.59,32.7v-.28a.38.38,0,0,0,0-.18c0-.07,0-.15,0-.23s0-.12,0-.18a.68.68,0,0,0,0-.23.45.45,0,0,0-.05-.18,1.55,1.55,0,0,1,0-.23.65.65,0,0,1,0-.18l-.08-.23a.88.88,0,0,0,0-.15,1.15,1.15,0,0,0-.1-.23.3.3,0,0,1,0-.15A1,1,0,0,0,37.9,30a.24.24,0,0,1,0-.13,2,2,0,0,0-.21-.33l-.18-.26s-.05-.05-.05-.08a1.72,1.72,0,0,1-.13-.18.19.19,0,0,0-.1-.1c0-.05-.07-.07-.1-.13l-.1-.1-.13-.13a.24.24,0,0,1-.1-.1l-.13-.13a.24.24,0,0,1-.1-.1c-.05,0-.08-.08-.13-.1a.57.57,0,0,1-.13-.1s-.08-.08-.13-.11L36,27.87l-.13-.08h0a6.08,6.08,0,0,0-3.18-.89A5.84,5.84,0,0,0,27,32.63a5.58,5.58,0,0,0,.67,2.76.65.65,0,0,1-.11.74L26,37.67s-.05.08-.08.1h0a.45.45,0,0,0,.31.77H37.9a.74.74,0,0,0,.72-.72V32.73S38.59,32.73,38.59,32.7Z"/><path class="cls-1" d="M18.94,36.62l-.54.56A.83.83,0,0,0,19,38.59h1.08a.84.84,0,0,0,.61-1.41l-.54-.56A.88.88,0,0,0,18.94,36.62Z"/><path class="cls-1" d="M25.51,0A.67.67,0,0,0,25,1.15l.79.85L.77,27.05A2.57,2.57,0,0,0,0,28.84v4.27a.44.44,0,0,0,0,.16.45.45,0,0,0,0,.18s0,.1,0,.15,0,.1,0,.15,0,.11,0,.16,0,.1,0,.15h0a5.87,5.87,0,0,0,1.61,2.87,5.78,5.78,0,0,0,4.07,1.63h5l27.05-27a2.61,2.61,0,0,0,.74-1.8V5.91A5.9,5.9,0,0,0,32.76,0"/><path class="cls-2" d="M52.09,7.69a2.51,2.51,0,0,1,1.21-.28,2.66,2.66,0,0,1,1.42.39,2.76,2.76,0,0,1,1,1.1,3.53,3.53,0,0,1,.37,1.66,3.57,3.57,0,0,1-.37,1.67,2.78,2.78,0,0,1-1,1.13,2.67,2.67,0,0,1-1.42.4,2.48,2.48,0,0,1-2-1v3.81H49.71V7.51h1.56V8.4A2.39,2.39,0,0,1,52.09,7.69Zm2.2,1.91a1.53,1.53,0,0,0-.6-.61,1.63,1.63,0,0,0-1.6,0,1.73,1.73,0,0,0-.6.63,2,2,0,0,0-.22,1,2,2,0,0,0,.22,1,1.73,1.73,0,0,0,.6.63,1.62,1.62,0,0,0,.8.21,1.53,1.53,0,0,0,.8-.22,1.65,1.65,0,0,0,.6-.63,2,2,0,0,0,.23-1A2,2,0,0,0,54.29,9.6Z"/><path class="cls-2" d="M59.57,7.7a2.13,2.13,0,0,1,1.11-.28V9.05h-.42a1.58,1.58,0,0,0-1.1.35,1.58,1.58,0,0,0-.37,1.2v3.06H57.24V7.51h1.55v1A2.18,2.18,0,0,1,59.57,7.7Z"/><path class="cls-2" d="M62.85,13.36a2.91,2.91,0,0,1-1.12-1.11,3.46,3.46,0,0,1-.4-1.67,3.25,3.25,0,0,1,.42-1.66A2.9,2.9,0,0,1,62.88,7.8a3.52,3.52,0,0,1,3.22,0,3,3,0,0,1,1.14,1.12,3.25,3.25,0,0,1,.41,1.66,3.26,3.26,0,0,1-.42,1.67,3,3,0,0,1-1.16,1.11,3.24,3.24,0,0,1-1.62.4A3.17,3.17,0,0,1,62.85,13.36Zm2.39-1.16a1.5,1.5,0,0,0,.6-.62,2.14,2.14,0,0,0,.22-1,1.86,1.86,0,0,0-.46-1.34,1.52,1.52,0,0,0-1.13-.48,1.48,1.48,0,0,0-1.12.48,1.9,1.9,0,0,0-.44,1.34,1.9,1.9,0,0,0,.43,1.35,1.44,1.44,0,0,0,1.11.47A1.57,1.57,0,0,0,65.24,12.2Z"/><path class="cls-2" d="M71.18,7.69a2.47,2.47,0,0,1,1.2-.28,2.69,2.69,0,0,1,1.43.39,2.83,2.83,0,0,1,1,1.1,3.53,3.53,0,0,1,.37,1.66,3.57,3.57,0,0,1-.37,1.67,2.85,2.85,0,0,1-1,1.13,2.7,2.7,0,0,1-1.43.4,2.41,2.41,0,0,1-1.19-.28,2.52,2.52,0,0,1-.84-.7v3.81H68.8V7.51h1.55V8.4A2.42,2.42,0,0,1,71.18,7.69ZM73.37,9.6A1.58,1.58,0,0,0,72.78,9,1.63,1.63,0,0,0,72,8.78a1.58,1.58,0,0,0-.79.21,1.65,1.65,0,0,0-.6.63,2,2,0,0,0-.23,1,2,2,0,0,0,.23,1,1.65,1.65,0,0,0,.6.63,1.58,1.58,0,0,0,.79.21,1.54,1.54,0,0,0,.81-.22,1.71,1.71,0,0,0,.59-.63,1.92,1.92,0,0,0,.23-1A1.85,1.85,0,0,0,73.37,9.6Z"/><path class="cls-2" d="M82,11.05H77.5a1.51,1.51,0,0,0,.46,1,1.41,1.41,0,0,0,1,.38,1.27,1.27,0,0,0,1.23-.74h1.68a2.84,2.84,0,0,1-1,1.46,3,3,0,0,1-1.85.57,3.14,3.14,0,0,1-1.6-.4,2.8,2.8,0,0,1-1.1-1.11,3.46,3.46,0,0,1-.39-1.67,3.46,3.46,0,0,1,.39-1.67A2.71,2.71,0,0,1,77.4,7.8,3.23,3.23,0,0,1,79,7.41a3.28,3.28,0,0,1,1.57.38,2.63,2.63,0,0,1,1.07,1.07A3.17,3.17,0,0,1,82,10.45,3.7,3.7,0,0,1,82,11.05Zm-1.56-1a1.25,1.25,0,0,0-.44-1,1.52,1.52,0,0,0-1-.36A1.38,1.38,0,0,0,78,9a1.53,1.53,0,0,0-.48,1Z"/><path class="cls-2" d="M85.5,7.7a2.13,2.13,0,0,1,1.11-.28V9.05H86.2a1.59,1.59,0,0,0-1.11.35,1.58,1.58,0,0,0-.37,1.2v3.06H83.17V7.51h1.55v1A2.18,2.18,0,0,1,85.5,7.7Z"/><path class="cls-2" d="M89.46,8.79v3a.58.58,0,0,0,.15.45.75.75,0,0,0,.5.14h.72v1.31h-1a1.72,1.72,0,0,1-2-1.91v-3h-.73V7.51h.73V6h1.57V7.51h1.37V8.79Z"/><path class="cls-2" d="M97.84,7.51,94,16.57H92.38l1.33-3.07-2.46-6H93l1.58,4.29,1.61-4.29Z"/><path class="cls-2" d="M102.44,13.36a2.85,2.85,0,0,1-1.12-1.11,3.36,3.36,0,0,1-.4-1.67,3.25,3.25,0,0,1,.42-1.66,2.9,2.9,0,0,1,1.13-1.12,3.52,3.52,0,0,1,3.22,0,3,3,0,0,1,1.14,1.12,3.25,3.25,0,0,1,.41,1.66,3.26,3.26,0,0,1-.42,1.67,3,3,0,0,1-1.16,1.11,3.24,3.24,0,0,1-1.62.4A3.17,3.17,0,0,1,102.44,13.36Zm2.39-1.16a1.42,1.42,0,0,0,.59-.62,2,2,0,0,0,.23-1,1.86,1.86,0,0,0-.46-1.34,1.52,1.52,0,0,0-1.13-.48,1.48,1.48,0,0,0-1.12.48,1.86,1.86,0,0,0-.45,1.34,1.91,1.91,0,0,0,.44,1.35,1.44,1.44,0,0,0,1.11.47A1.57,1.57,0,0,0,104.83,12.2Z"/><path class="cls-2" d="M111.21,8.79h-1.08v4.87h-1.58V8.79h-.69V7.51h.69V7.2a2,2,0,0,1,.65-1.66,2.8,2.8,0,0,1,1.94-.5V6.35a1.17,1.17,0,0,0-.79.18,1,1,0,0,0-.22.73v.25h1.08Z"/><path class="cls-2" d="M54.5,35.82h6.78V39H50.14v-3.1l6.64-9H50.16V23.77h11v3.1Z"/><path class="cls-2" d="M64.18,27.23a6.65,6.65,0,0,1,2.5-2.74,6.54,6.54,0,0,1,3.52-1,6.12,6.12,0,0,1,5,2.42V23.77H79.1V39H75.23V36.76a5.85,5.85,0,0,1-2,1.77,6.33,6.33,0,0,1-3,.7,6.43,6.43,0,0,1-3.5-1,6.85,6.85,0,0,1-2.5-2.79,8.85,8.85,0,0,1-.92-4.13A8.71,8.71,0,0,1,64.18,27.23ZM74.68,29a3.83,3.83,0,0,0-1.48-1.53,4,4,0,0,0-2-.54A3.82,3.82,0,0,0,67.75,29a4.7,4.7,0,0,0-.57,2.37,4.84,4.84,0,0,0,.57,2.4,4,4,0,0,0,1.48,1.58,3.73,3.73,0,0,0,2,.55,4,4,0,0,0,2-.54,3.83,3.83,0,0,0,1.48-1.53,5.53,5.53,0,0,0,0-4.81Z"/><path class="cls-2" d="M106.26,25.27A6.49,6.49,0,0,1,108,30.06V39h-3.85v-8.4a3.81,3.81,0,0,0-.9-2.73,3.28,3.28,0,0,0-2.47-1,3.32,3.32,0,0,0-2.49,1,3.77,3.77,0,0,0-.92,2.73V39H93.51v-8.4a3.77,3.77,0,0,0-.91-2.73,3.25,3.25,0,0,0-2.47-1,3.34,3.34,0,0,0-2.51,1,3.77,3.77,0,0,0-.92,2.73V39H82.86V23.77H86.7v1.84a5.2,5.2,0,0,1,1.91-1.51,5.9,5.9,0,0,1,2.57-.55,6.53,6.53,0,0,1,3.18.76,5.29,5.29,0,0,1,2.17,2.15,5.46,5.46,0,0,1,2.15-2.11,6.2,6.2,0,0,1,3.07-.8A6.08,6.08,0,0,1,106.26,25.27Z"/><path class="cls-2" d="M120.63,39l-5.16-6.48V39h-3.84V18.67h3.84V30.22l5.11-6.45h5l-6.7,7.63L125.63,39Z"/><path class="cls-2" d="M127.59,27.23a6.65,6.65,0,0,1,2.5-2.74,6.57,6.57,0,0,1,3.53-1,6.15,6.15,0,0,1,3,.69,6,6,0,0,1,2,1.73V23.77h3.87V39h-3.87V36.76a5.76,5.76,0,0,1-2,1.77,6.33,6.33,0,0,1-3,.7,6.45,6.45,0,0,1-3.5-1,6.85,6.85,0,0,1-2.5-2.79,9,9,0,0,1-.92-4.13A8.83,8.83,0,0,1,127.59,27.23ZM138.09,29a3.83,3.83,0,0,0-1.48-1.53,4,4,0,0,0-2-.54A3.85,3.85,0,0,0,131.16,29a4.7,4.7,0,0,0-.56,2.37,4.84,4.84,0,0,0,.56,2.4,4,4,0,0,0,1.48,1.58,3.73,3.73,0,0,0,2,.55,4,4,0,0,0,2-.54,3.83,3.83,0,0,0,1.48-1.53,5.53,5.53,0,0,0,0-4.81Z"/><path class="cls-2" d="M152.05,24.24a5.35,5.35,0,0,1,2.73-.69v4h-1a3.91,3.91,0,0,0-2.74.85,3.93,3.93,0,0,0-.92,3V39h-3.84V23.77h3.84v2.36A5.48,5.48,0,0,1,152.05,24.24Z"/><path class="cls-2" d="M157.29,27.23a6.72,6.72,0,0,1,2.5-2.74,6.57,6.57,0,0,1,3.53-1,6.19,6.19,0,0,1,3,.69,6,6,0,0,1,2,1.73V23.77h3.87V39h-3.87V36.76a5.81,5.81,0,0,1-2,1.77,6.37,6.37,0,0,1-3,.7,6.45,6.45,0,0,1-3.5-1,6.92,6.92,0,0,1-2.5-2.79,9,9,0,0,1-.92-4.13A8.83,8.83,0,0,1,157.29,27.23ZM167.79,29a3.77,3.77,0,0,0-1.48-1.53,3.93,3.93,0,0,0-2-.54,3.85,3.85,0,0,0-2,.52A4,4,0,0,0,160.86,29a4.7,4.7,0,0,0-.56,2.37,4.84,4.84,0,0,0,.56,2.4,4.11,4.11,0,0,0,1.48,1.58,3.76,3.76,0,0,0,2,.55,3.93,3.93,0,0,0,2-.54,3.77,3.77,0,0,0,1.48-1.53,5.53,5.53,0,0,0,0-4.81Z"/><path class="cls-3" d="M176,38.53a2.27,2.27,0,0,1,0-3.22,2.37,2.37,0,0,1,1.71-.64,2.3,2.3,0,0,1,1.68.64,2.29,2.29,0,0,1,0,3.22,2.3,2.3,0,0,1-1.68.64A2.37,2.37,0,0,1,176,38.53Z"/></g></g></svg>