<svg xmlns="http://www.w3.org/2000/svg" viewBox="0 0 167.68 51.13"><defs><style>.cls-1,.cls-4{fill:#ed7070;}.cls-1{fill-rule:evenodd;}.cls-2{font-size:10.27px;}.cls-2,.cls-3{fill:#fff0f0;font-family:Poppins-SemiBold, Poppins;font-weight:600;}.cls-3{font-size:25.4px;}.cls-4{letter-spacing:0em;}</style></defs><g id="Layer_2" data-name="Layer 2"><g id="Layer_1-2" data-name="Layer 1"><path class="cls-1" d="M0,5.45v.26a.47.47,0,0,0,0,.16c0,.07,0,.14,0,.22s0,.11,0,.16a.54.54,0,0,0,0,.21.37.37,0,0,0,.05.17c0,.07,0,.14,0,.21A.69.69,0,0,1,.26,7l.07.21a1.21,1.21,0,0,1,0,.14,1,1,0,0,0,.09.22.24.24,0,0,1,.05.14.75.75,0,0,0,.12.21c0,.05,0,.07,0,.12a1.73,1.73,0,0,0,.19.31L1,8.6s.05,0,.05.07a.74.74,0,0,1,.12.16.18.18,0,0,0,.09.1,1.27,1.27,0,0,1,.1.12l.09.09.12.12s.07.05.09.09l.12.12a.31.31,0,0,1,.1.1c.05,0,.07.07.12.09a.33.33,0,0,1,.11.1c.05,0,.08.07.12.09l.12.07.12.07h0a5.6,5.6,0,0,0,2.94.83,5.4,5.4,0,0,0,5.3-5.3A5.13,5.13,0,0,0,10.13,3a.62.62,0,0,1,.1-.69L11.65.85l.07-.09h0a.42.42,0,0,0-.28-.71H.66A.68.68,0,0,0,0,.71V5.45Z"/><path class="cls-1" d="M35.71,30.26V30a.34.34,0,0,0,0-.17c0-.07,0-.14,0-.21s0-.12,0-.16a.79.79,0,0,0,0-.22.49.49,0,0,0-.05-.16,1.74,1.74,0,0,0,0-.22,1.23,1.23,0,0,1,0-.16l-.07-.22a.58.58,0,0,1-.05-.14,1,1,0,0,0-.1-.21.37.37,0,0,1,0-.14c0-.07-.08-.14-.12-.22a.18.18,0,0,1,0-.11,2,2,0,0,0-.19-.31l-.17-.24a.13.13,0,0,1,0-.07.83.83,0,0,1-.12-.17.18.18,0,0,0-.1-.09c0-.05-.07-.07-.09-.12l-.09-.09-.12-.12a.47.47,0,0,1-.1-.1l-.12-.11s-.07,0-.09-.1-.07-.07-.12-.09a.53.53,0,0,1-.12-.1s-.07-.07-.12-.09l-.11-.07-.12-.08h0a5.62,5.62,0,0,0-2.94-.82,5.39,5.39,0,0,0-5.3,5.3,5.15,5.15,0,0,0,.61,2.56.61.61,0,0,1-.09.68l-1.42,1.42s0,.08-.07.1h0a.42.42,0,0,0,.28.71h10.8a.68.68,0,0,0,.66-.66V30.28S35.71,30.28,35.71,30.26Z"/><path class="cls-1" d="M17.52,33.88l-.5.52a.78.78,0,0,0,.57,1.31h1a.78.78,0,0,0,.57-1.31l-.5-.52A.83.83,0,0,0,17.52,33.88Z"/><path class="cls-1" d="M23.61,0a.62.62,0,0,0-.45,1.07l.73.78L.71,25A2.36,2.36,0,0,0,0,26.69v3.95a.24.24,0,0,0,0,.14.56.56,0,0,0,0,.17s0,.09,0,.14,0,.09,0,.14,0,.1,0,.14,0,.1,0,.15h0a5.4,5.4,0,0,0,1.49,2.65,5.32,5.32,0,0,0,3.76,1.51H10l25-25A2.43,2.43,0,0,0,35.75,9V5.47A5.46,5.46,0,0,0,30.31,0"/><text class="cls-2" transform="translate(45.29 12.64)">property of</text><text class="cls-3" transform="translate(45.43 36.07)">zamkara<tspan class="cls-4" x="115.65" y="0">.</tspan></text></g></g></svg>