<svg xmlns="http://www.w3.org/2000/svg" xmlns:xlink="http://www.w3.org/1999/xlink" viewBox="0 0 55.39 55.32"><defs><style>.cls-1{fill:#cb8c32;}.cls-1,.cls-2,.cls-3{fill-rule:evenodd;}.cls-2{fill:#d49435;}.cls-3{fill:url(#linear-gradient);}</style><linearGradient id="linear-gradient" x1="36.97" y1="-9.38" x2="26.83" y2="31.17" gradientUnits="userSpaceOnUse"><stop offset="0" stop-color="#fec741"/><stop offset="1" stop-color="#cb8c32"/></linearGradient></defs><g id="Layer_2" data-name="Layer 2"><g id="Layer_1-2" data-name="Layer 1"><path class="cls-1" d="M0,8.44v.4A.61.61,0,0,0,0,9.1c0,.11,0,.22,0,.33s0,.18,0,.25A1.47,1.47,0,0,0,.18,10a.61.61,0,0,0,.08.25c0,.11,0,.22.07.33a1.38,1.38,0,0,1,.07.26l.11.33c0,.07,0,.15.08.22a1.17,1.17,0,0,0,.14.33A.49.49,0,0,1,.81,12a1.35,1.35,0,0,0,.18.33.34.34,0,0,1,.07.18,4.2,4.2,0,0,0,.3.48l.25.37s.08.07.08.11a1.35,1.35,0,0,1,.18.25.28.28,0,0,0,.15.15c0,.07.11.11.14.18l.15.15.18.18a.71.71,0,0,1,.15.15l.18.18a.71.71,0,0,1,.15.15c.07,0,.11.11.18.15a.58.58,0,0,1,.19.14c.07,0,.11.11.18.15l.19.11.18.11h0a8.63,8.63,0,0,0,4.55,1.29,8.39,8.39,0,0,0,8.22-8.22,8.11,8.11,0,0,0-1-4,1,1,0,0,1,.15-1.07l2.2-2.2s.07-.11.11-.15h0a.65.65,0,0,0-.44-1.1H1a1.06,1.06,0,0,0-1,1V8.44Z"/><path class="cls-1" d="M55.32,46.88v-.4a.61.61,0,0,0,0-.26c0-.11,0-.22,0-.33s0-.18,0-.25a1.3,1.3,0,0,0-.07-.33.61.61,0,0,0-.08-.26c0-.11,0-.22-.07-.33a1.2,1.2,0,0,1-.07-.26l-.11-.33c0-.07,0-.14-.08-.22a1.17,1.17,0,0,0-.14-.33.45.45,0,0,1-.08-.22,1.35,1.35,0,0,0-.18-.33.34.34,0,0,1-.07-.18,4.2,4.2,0,0,0-.3-.48L53.71,42s-.08-.07-.08-.11a1.35,1.35,0,0,1-.18-.25.28.28,0,0,0-.15-.15c0-.07-.11-.11-.14-.18L53,41.16,52.83,41a.71.71,0,0,1-.15-.15l-.18-.18a.71.71,0,0,1-.15-.15c-.07,0-.11-.11-.18-.15a.58.58,0,0,1-.19-.14c-.07,0-.11-.11-.18-.15L51.62,40l-.19-.11h0a8.62,8.62,0,0,0-4.55-1.28,8.36,8.36,0,0,0-8.21,8.21,8.06,8.06,0,0,0,.95,4,.94.94,0,0,1-.15,1.06L37.27,54a1.43,1.43,0,0,1-.11.15h0a.65.65,0,0,0,.44,1.1H54.33a1.06,1.06,0,0,0,1-1v-7.3S55.32,46.92,55.32,46.88Z"/><path class="cls-2" d="M27.15,52.5l-.77.8a1.19,1.19,0,0,0,.88,2H28.8a1.2,1.2,0,0,0,.88-2l-.77-.8A1.26,1.26,0,0,0,27.15,52.5Z"/><path class="cls-3" d="M36.57,0a1,1,0,0,0-.69,1.65L37,2.86,1.1,38.78A3.69,3.69,0,0,0,0,41.34v6.13a.56.56,0,0,0,0,.22.68.68,0,0,0,0,.26c0,.07,0,.14,0,.22s0,.14,0,.22,0,.14,0,.22,0,.14,0,.22h0a8.42,8.42,0,0,0,2.31,4.11A8.28,8.28,0,0,0,8.4,55.28h7.15L54.33,16.51a3.71,3.71,0,0,0,1.06-2.57V8.47A8.46,8.46,0,0,0,47,0"/></g></g></svg>